<?xml version="1.0" encoding="UTF-8"?> <svg xmlns="http://www.w3.org/2000/svg" xmlns:xlink="http://www.w3.org/1999/xlink" id="Layer_2" viewBox="0 0 1283.8816 206.4342"><defs><linearGradient id="New_Gradient_Swatch_copy_5" x1="1108.8782" y1="26.2798" x2="1109.3271" y2="137.1924" gradientUnits="userSpaceOnUse"><stop offset=".082" stop-color="#e8927c"></stop><stop offset=".4005" stop-color="#ffb81c"></stop></linearGradient></defs><g id="Components"><g id="_6cbba29a-2971-4f34-a330-4051f03b6da0_7"><path d="M1063.7459,82.4191h-10.2641V0h10.2641v82.4191ZM1164.3954,0h-10.2641v82.4191h10.2641V0ZM1088.9083,10.552h-10.2641v54.5469h10.2641V10.552ZM1139.233,10.552h-10.2641v54.5469h10.2641V10.552ZM1114.0706,19.3976h-10.2641v63.0215h10.2641V19.3976Z" style="fill:url(#New_Gradient_Swatch_copy_5); stroke-width:0px;"></path><path d="M427.2939,154.8366l-.1737,1.2157c-4.8629-.521-12.6693-.6947-17.354-.6947-5.0321,0-12.4956.1737-17.5277.521l-.1737-1.042c3.8164-1.5631,5.2058-3.1217,5.3794-7.2898.1737-5.5531.3473-22.0388.3473-49.1096,0-18.2179.1737-30.7136.521-39.3928-13.5377,30.8917-26.2069,60.5632-39.9138,94.5765h-6.4215c-10.7589-24.4657-32.624-70.9747-44.4249-95.0976.3473,9.3739.521,20.6538.6947,39.9138.1737,23.4282,1.2157,38.8718,1.9104,48.4194.521,4.8584,2.2533,6.417,5.5531,7.9801l-.1737,1.042c-3.6472-.3473-8.1582-.521-10.9325-.521-2.7788,0-7.2898.1737-11.4536.521l-.1737-1.042c3.6427-1.7367,5.2058-2.948,5.3794-6.9425.8684-10.7589,1.042-24.8131,1.042-49.457,0-22.7335-.1737-41.8198-.521-49.1096-.1737-4.1637-1.5631-5.7268-5.3794-7.2898l.3473-1.0376c5.0321.3473,11.6228.5166,16.4857.5166,4.8584,0,12.1438-.1692,15.4436-.3429,11.8009,27.4182,24.1184,53.968,36.4403,78.9548,10.5852-23.5974,26.5498-60.7369,33.666-78.9548,3.99.1737,9.8905.3429,14.9226.3429,4.6892,0,11.4536-.1692,16.3164-.5166l.1737,1.0376c-3.6472,1.3894-5.2102,3.1261-5.3839,7.2898-.1692,5.5531-.3429,22.0388-.3429,49.1096,0,26.8972.1737,43.5565.3429,49.1096.1737,4.1682,1.7367,5.9005,5.3839,7.2898Z" style="fill:#fff; stroke-width:0px;"></path><path d="M510.2655,152.0623c-9.5432,1.0376-17.8706,3.1217-25.1604,6.2434l-.8684-.5166c.521-3.2998.8684-7.1162.8684-9.895-4.5111,5.7268-13.5377,9.895-21.8651,9.895-14.5752,0-24.1229-7.9845-24.1229-20.4802,0-12.8385,14.927-20.9967,32.2766-20.9967,4.6892,0,8.6792.3473,13.7113,1.7367v-5.3794c0-8.8529-6.0741-12.4956-13.5377-12.4956-8.8485,0-17.6969,4.8584-23.4237,13.8805l-.8684-.3429v-11.8009c8.1538-6.4215,16.6593-8.6792,26.5498-8.6792,18.0487,0,30.3707,6.5952,30.3707,19.4381,0,21.8651.1692,28.1129.3429,31.4082.3473,4.6847,2.9525,6.2478,5.7268,7.1162v.8684ZM474.8672,122.039c-9.3739,0-15.791,5.5531-15.791,14.0542,0,7.8109,5.0321,12.4956,11.8009,12.4956,5.0321,0,9.8905-2.2533,14.0542-6.4215.1737-3.2954.1737-10.7589.1737-18.739-3.1217-.8684-6.0741-1.3894-10.2379-1.3894Z" style="fill:#fff; stroke-width:0px;"></path><path d="M632.4517,157.7891c-23.0808,0-36.614-13.1903-36.614-32.2811s13.5332-32.2766,36.614-32.2766,36.4448,13.1903,36.4448,32.2766-13.364,32.2811-36.4448,32.2811ZM632.4517,100.0002c-10.2379,0-15.0963,8.1538-15.0963,25.5078,0,17.5277,4.8584,25.5122,15.0963,25.5122,9.8905,0,14.9226-7.9845,14.9226-25.5122,0-17.354-5.0321-25.5078-14.9226-25.5078Z" style="fill:#fff; stroke-width:0px;"></path><path d="M754.8072,155.8786c-5.2058-.3473-10.4115-.521-15.2699-.521-5.0365,0-9.7213.1737-14.927.521v-.8684c2.9525-1.3894,5.0321-3.2954,5.2058-7.1162.1737-4.3374.3473-15.9646.3473-28.1129,0-13.8805-3.8164-18.0443-10.9325-18.0443-8.1538,0-14.2279,6.2478-15.6173,15.791v4.3374c0,10.0642.1737,21.1704.3473,26.0288.1737,3.8208,1.9104,5.7268,5.2058,7.1162l-.1737.8684c-5.0321-.3473-10.2379-.521-15.4436-.521-4.6847,0-9.3695.1737-14.5797.521l-.3429-.8684c3.469-1.2157,5.3794-3.2954,5.5531-7.1162.1737-4.3374.3429-15.2699.3429-23.7711,0-7.6372-.1692-13.885-.3429-17.1804-.1737-4.6847-2.9525-6.2478-5.7268-7.1162v-.8684c9.5432-1.042,17.8706-3.1217,25.1604-6.2478l.6947.521c-.521,7.4635-.6947,11.6272-.6947,13.7113,3.1217-7.8109,11.4536-13.7113,22.5598-13.7113,17.7014,0,23.0808,10.7589,23.0808,26.8972,0,11.8009.1737,22.9071.3473,27.7656.1737,3.8208,1.906,5.7268,5.3794,7.1162l-.1737.8684Z" style="fill:#fff; stroke-width:0px;"></path><path d="M931.783,154.8366l-.1737,1.2157c-4.8629-.521-12.6693-.6947-17.354-.6947-5.0321,0-12.4956.1737-17.5277.521l-.1737-1.042c3.8164-1.5631,5.2058-3.1217,5.3794-7.2898.1737-5.5531.3473-22.0388.3473-49.1096,0-18.2179.1737-30.7136.521-39.3928-13.5377,30.8917-26.2069,60.5632-39.9138,94.5765h-6.4215c-10.7589-24.4657-32.624-70.9747-44.4249-95.0976.3473,9.3739.521,20.6538.6947,39.9138.1737,23.4282,1.2157,38.8718,1.9104,48.4194.521,4.8584,2.2533,6.417,5.5531,7.9801l-.1737,1.042c-3.6472-.3473-8.1582-.521-10.9325-.521-2.7788,0-7.2898.1737-11.4536.521l-.1737-1.042c3.6427-1.7367,5.2058-2.948,5.3794-6.9425.8684-10.7589,1.042-24.8131,1.042-49.457,0-22.7335-.1737-41.8198-.521-49.1096-.1737-4.1637-1.5631-5.7268-5.3794-7.2898l.3473-1.0376c5.0321.3473,11.6228.5166,16.4857.5166,4.8584,0,12.1438-.1692,15.4436-.3429,11.8009,27.4182,24.1184,53.968,36.4403,78.9548,10.5852-23.5974,26.5498-60.7369,33.666-78.9548,3.99.1737,9.8905.3429,14.9226.3429,4.6892,0,11.4536-.1692,16.3164-.5166l.1737,1.0376c-3.6472,1.3894-5.2102,3.1261-5.3839,7.2898-.1692,5.5531-.3429,22.0388-.3429,49.1096,0,26.8972.1737,43.5565.3429,49.1096.1737,4.1682,1.7367,5.9005,5.3839,7.2898Z" style="fill:#fff; stroke-width:0px;"></path><path d="M958.471,118.3963c-.1737,2.0796-.3473,4.5111-.3473,6.938,0,14.7534,10.4115,22.5598,22.2124,22.5598,8.3319,0,13.1903-2.0796,18.3961-6.2478v2.2578c-3.9945,6.2478-14.0587,14.0587-27.249,14.0587-18.2179,0-34.8773-11.6272-34.8773-32.4547,0-19.6073,14.5752-32.2766,34.8773-32.2766,18.9171,0,29.5023,9.7168,29.5023,25.1649h-42.5145ZM981.5518,111.4538c0-7.2898-3.2998-11.2799-9.5476-11.2799-7.1117,0-10.9325,4.1637-12.6648,12.1483l22.2124-.8684Z" style="fill:#fff; stroke-width:0px;"></path><path d="M1040.5652,155.8786c-5.2058-.3473-10.4115-.521-15.6173-.521-4.6892,0-9.3739.1737-14.7534.521l-.1737-.8684c3.4735-1.2157,5.3794-3.2954,5.5531-7.1162.1737-4.3374.3473-17.8706.3473-49.457,0-30.0189-.1737-40.7777-.3473-46.1572-.1737-4.6892-2.948-6.2478-5.7268-7.1162v-.8684c9.5476-1.042,17.875-3.1217,25.1649-6.2478l.6947.521c-.521,8.5056-.6947,25.3341-.6947,59.8685,0,31.5864.1737,44.5986.3473,49.457.1737,3.8208,1.906,5.7268,5.3794,7.1162l-.1737.8684Z" style="fill:#fff; stroke-width:0px;"></path><path d="M1084.1814,157.7891c-23.0764,0-36.614-13.1903-36.614-32.2811s13.5377-32.2766,36.614-32.2766,36.4448,13.1903,36.4448,32.2766-13.364,32.2811-36.4448,32.2811ZM1084.1814,100.0002c-10.2379,0-15.0963,8.1538-15.0963,25.5078,0,17.5277,4.8584,25.5122,15.0963,25.5122,9.895,0,14.927-7.9845,14.927-25.5122,0-17.354-5.0321-25.5078-14.927-25.5078Z" style="fill:#fff; stroke-width:0px;"></path><path d="M1209.4297,152.0623c-9.5476,1.0376-17.875,3.1217-25.1649,6.2434l-.8684-.5166.6947-6.5952c-4.8584,3.6427-11.1062,6.5952-19.26,6.5952-14.927,0-30.0233-9.3739-30.0233-32.2811,0-21.5177,15.2699-32.4503,32.1029-32.4503,6.2478,0,11.9746,1.7367,17.354,4.6847v-2.427c0-26.8972-.1737-38.3508-.3473-43.3828-.1737-5.0321-3.1217-6.2478-5.7268-6.5952v-1.042c8.5056-1.042,17.875-3.1217,25.1649-6.2478l.8639.521c-.6902,9.1958-.8639,25.3341-.8639,59.8685,0,22.9071.1737,42.3452.3473,45.6406.3429,4.6847,2.948,6.2478,5.7268,7.1162v.8684ZM1173.5059,100.6949c-10.5852,0-17.0067,8.6748-17.0067,24.8131,0,14.927,7.1162,23.2545,17.1804,23.2545,4.1637,0,7.6372-1.5631,10.2379-3.6427.1737-7.2898.3473-17.875.3473-41.3032-2.7743-1.906-6.2478-3.1217-10.7589-3.1217Z" style="fill:#fff; stroke-width:0px;"></path><path d="M1283.8816,96.0102c-2.6002.8685-4.858,2.9481-6.9415,6.7644-4.858,9.0266-41.4492,98.1201-43.5286,102.9787-1.7369-.1738-4.2104,0-7.1572,0-2.953,0-7.598.5072-9.8558.681l.88-2.112c10.5897-7.6328,21.6585-34.7367,26.8631-46.1858-4.1629-9.3739-11.6273-25.5122-17.0063-36.9658-3.1211-6.4214-5.8998-11.9747-8.5-17.0068-2.0856-3.8163-5.0324-7.2852-7.8111-8.3275l.3466-.6947c2.6044.3473,12.4948.5211,15.2735.5211,2.428,0,14.0553-.1738,16.1388-.5211l.3486.6947c-3.6482,1.5587-4.5156,4.3374-3.4739,6.9382l5.5532,12.6694c3.6461,7.9843,6.2464,13.8849,10.0626,21.5177,3.6482-8.154,5.5532-12.8385,7.6388-18.0444,3.1211-7.9846,5.0324-13.1902,6.0741-16.6592.8674-3.4736-.3486-4.863-3.9906-6.2479l.3466-.8685c2.2537.3473,6.9395.5211,9.7182.5211,2.7745,0,6.2464-.1738,8.6743-.5211l.3466.8685Z" style="fill:#fff; stroke-width:0px;"></path><path d="M101.2979,64.3321c-11.4845-9.602-26.224-14.2292-36.8508-14.2292h-1.5439v48.8499c0,26.567.1715,43.0219.3431,48.5068.1715,4.117,1.887,5.828,5.485,7.2004l-.3431,1.0293c-4.7988-.3431-12.3422-.5146-17.141-.5146s-12.1707.1715-17.141.5146l-.3431-1.0293c3.7739-1.5439,5.3134-3.0834,5.485-7.2004.1715-5.485.3431-21.9398.3431-48.5068v-48.8499h-1.3679c-10.6312,0-25.5422,4.7988-37.0267,14.4007l-1.1964-1.0293c2.5687-6.5142,5.1419-15.2541,6.1667-20.7434h90.1608c1.0293,5.4893,3.598,14.0577,5.9996,20.7434l-1.0293.8577Z" style="fill:#fff; stroke-width:0px;"></path><path d="M183.0707,155.6893c-5.1419-.3431-10.2837-.5146-15.0825-.5146-4.9703,0-9.5976.1715-14.7394.5146v-.8577c3.2549-1.2008,4.9703-3.2549,5.1419-7.0288.1715-4.2842.3431-15.7687.3431-27.7678,0-13.7102-3.7739-17.8228-10.7984-17.8228-8.0581,0-14.0577,6.1711-15.4256,15.7687,0,12.1707.1715,25.0232.3387,29.8219.1715,3.7739,1.887,5.6565,5.1463,7.0288l-.1715.8577c-4.9747-.3431-10.1166-.5146-15.2585-.5146-4.6272,0-9.2545.1715-14.3963.5146l-.3431-.8577c3.4264-1.2008,5.3134-3.2549,5.485-7.0288.1715-4.2842.3431-17.6513.3431-48.8499,0-29.6504-.1715-40.6203-.3431-45.5906-.1715-4.6316-2.9118-6.1711-5.6565-7.0288v-.8577c9.426-1.0293,17.6556-3.0834,24.856-6.1711l.6818.5146c-.5102,8.4012-.6818,25.0232-.6818,59.1337v8.5727c3.0834-7.8865,11.3086-13.7146,22.2785-13.7146,17.4841,0,22.7975,10.6268,22.7975,26.567,0,11.6561.1715,22.626.3431,27.4248.1715,3.7739,1.887,5.6565,5.3134,7.0288l-.1715.8577Z" style="fill:#fff; stroke-width:0px;"></path><path d="M214.2782,118.667c-.1715,2.0541-.3431,4.4557-.3431,6.8529,0,14.5723,10.2837,22.2829,21.9398,22.2829,8.2252,0,13.024-2.0541,18.1703-6.1711v2.23c-3.9455,6.1711-13.8861,13.8861-26.9145,13.8861-17.9943,0-34.4492-11.4845-34.4492-32.0564,0-19.3667,14.3963-31.8805,34.4492-31.8805,18.6849,0,29.1402,9.5976,29.1402,24.856h-41.9926ZM237.0757,111.8097c0-7.2004-3.2593-11.1414-9.4304-11.1414-7.0244,0-10.7984,4.1126-12.5094,11.9992l21.9398-.8577Z" style="fill:#fff; stroke-width:0px;"></path><path d="M583.5919,143.8795c-3.9945,6.2478-14.0587,14.0587-27.249,14.0587-18.2179,0-34.8773-11.4536-34.8773-32.4547,0-19.6073,15.4436-32.2766,35.572-32.2766,16.6951,0,25.705,7.1995,25.705,7.1995l.1546,15.1866-1.042.6947c-3.99-8.3274-11.8009-15.4436-20.302-15.4436-13.1903,0-18.7434,12.3219-18.7434,21.6914,0,17.0067,10.0642,25.3341,22.3861,25.3341,8.3274,0,13.1859-2.0796,18.3961-6.2478v2.2578Z" style="fill:#fff; stroke-width:0px;"></path></g></g></svg> 